<svg width="1000" height="550" xmlns="http://www.w3.org/2000/svg">
 <!-- Created with Method Draw - http://github.com/duopixel/Method-Draw/ -->
 <g>
  <title>background</title>
  <rect fill="#fff" id="canvas_background" height="552" width="1002" y="-1" x="-1"/>
  <g display="none" overflow="visible" y="0" x="0" height="100%" width="100%" id="canvasGrid">
   <rect fill="url(#gridpattern)" stroke-width="0" y="0" x="0" height="100%" width="100%"/>
  </g>
 </g>
 <g>
  <title>Layer 1</title>
  <text font-weight="bold" stroke="#000" transform="matrix(9.226675542569428,0,0,9.170810707496388,-2604.7258405126604,-1424.2985983321719) " xml:space="preserve" text-anchor="start" font-family="'Shadows Into Light', serif" font-size="24" id="svg_1" y="194.556234" x="325.810756" stroke-width="0" fill="#000000">Logan</text>
  <path stroke="#000" id="svg_2" d="m384.749985,85.285141c-9.989442,-25.024868 -30.809465,-20.508589 -46.305446,-26.19307c-12.866684,-8.36831 -32.572539,-16.390544 -41.727329,7.545267c-12.217049,22.340083 -23.060459,46.429348 -32.71023,71.601504c-20.237042,34.791261 -44.810468,62.688478 -69.511731,89.010094c-20.807409,16.039294 -43.586585,28.547634 -60.430476,54.681331c-31.985568,32.193791 -70.949301,38.063118 -106.314773,56.936003c6.268637,3.419857 34.021528,-9.009675 15.366233,4.601102c-13.879115,7.171884 5.462414,13.837041 11.638572,9.052199c-4.876494,8.181553 -6.217906,8.850562 -0.220662,8.727469c-10.895311,9.552667 24.194707,-2.966842 4.872206,10.402548c-8.412497,3.860165 -29.097994,39.470046 -10.130394,23.427566c17.634812,-11.514675 36.43303,-17.306619 54.777764,-25.220265c-13.720556,22.131436 -33.273251,35.97157 -42.703339,64.033372c0.214331,7.24312 14.596706,-14.717189 20.678019,-18.314545c34.58222,-32.792014 70.816244,-63.183436 109.77367,-80.888326c5.320124,2.010717 6.360507,24.363581 16.729875,12.935941c0.910205,14.243147 23.686275,-22.341976 17.738233,6.191695c9.864186,-24.431818 -0.017703,26.524191 9.112827,34.238561c4.659655,9.656794 23.795143,22.986433 8.196673,26.295585c-6.894298,16.184933 9.665336,-6.492456 13.281346,8.670233c13.51338,7.70082 3.669907,15.596006 -6.111738,10.932983c-7.496654,-1.57069 -9.04339,13.88665 -1.465892,4.295169c9.048502,9.733239 23.419195,6.237349 34.957535,10.421814c11.530707,1.500541 25.507844,-18.52456 29.878045,-13.6706c-10.628219,-11.966547 -26.013636,2.644754 -37.678726,-6.591991c-2.46025,-12.417969 27.343329,4.444369 27.40364,-16.545778c13.960569,-2.038417 -11.740786,-4.867435 -16.728,0.084505c-17.177374,1.441 -25.990319,-23.613461 -38.08296,-37.839009c0.366225,-29.525592 14.169119,-54.890578 28.615328,-71.564115c18.847647,-17.806562 38.184995,-40.741494 43.522893,-76.280364c5.533822,-31.650481 8.615277,-64.264827 11.131024,-96.721484c3.403376,-20.941644 13.185989,-40.280795 28.191516,-38.718539c8.09244,-1.76946 16.214336,-3.238797 24.256284,-5.536893l0.000012,0.000037z" stroke-width="1.5" fill="#1A333F"/>
 </g>
</svg>